<?xml version="1.0" encoding="utf-8"?>
<!-- Generator: Adobe Illustrator 25.3.1, SVG Export Plug-In . SVG Version: 6.00 Build 0)  -->
<svg version="1.1" id="Layer_1" xmlns="http://www.w3.org/2000/svg" xmlns:xlink="http://www.w3.org/1999/xlink" x="0px" y="0px"
	 viewBox="0 0 150 150" style="enable-background:new 0 0 150 150;" xml:space="preserve">
<style type="text/css">
	.st0{filter:url(#Adobe_OpacityMaskFilter);}
	.st1{mask:url(#SVGID_1_);}
</style>
<defs>
	<filter id="Adobe_OpacityMaskFilter" filterUnits="userSpaceOnUse" x="-0.02" y="-0.02" width="150.02" height="150.02">
		<feFlood  style="flood-color:white;flood-opacity:1" result="back"/>
		<feBlend  in="SourceGraphic" in2="back" mode="normal"/>
	</filter>
</defs>
<mask maskUnits="userSpaceOnUse" x="-0.02" y="-0.02" width="150.02" height="150.02" id="SVGID_1_">
	<g class="st0">
		<g>
			<path d="M179.33,33.93H51.11c-10.05,0-18.21,8.15-18.21,18.21v96.79c0,1.7,1.38,3.08,3.08,3.08h19.25c1.7,0,3.08-1.38,3.08-3.08
				v-27.14c0-1.7,1.38-3.08,3.08-3.08h20.25c10.83,0,30.66-7.22,30.66-25.73v-0.1c0-1.7-1.38-3.08-3.08-3.08H61.39
				c-1.7,0-3.08-1.38-3.08-3.08V64.42c0-1.7,1.38-3.08,3.08-3.08h119.24c1.79,0,3.2-1.52,3.07-3.3l-1.3-17.5
				C182.28,38.93,180.94,33.93,179.33,33.93z"/>
		</g>
	</g>
</mask>
<g class="st1">
	<circle cx="74.99" cy="74.99" r="75.01"/>
</g>
</svg>
